<svg width="72" height="72" viewBox="0 0 72 72" fill="none" xmlns="http://www.w3.org/2000/svg">
<path d="M64.5943 72H7.40571C3.312 72 0 68.688 0 64.5943V7.40571C0 3.312 3.312 0 7.40571 0H64.5943C68.688 0 72 3.312 72 7.40571V64.5943C72 68.688 68.688 72 64.5943 72Z" fill="#FFB92C"/>
<path d="M34.4059 12.8777L32.7396 55.7794C32.7396 57.6206 31.2482 59.1223 29.3967 59.1223H22.0527L23.719 16.2206C23.719 14.3794 25.2104 12.8777 27.0619 12.8777H34.4059Z" fill="#212121"/>
<path d="M49.9576 12.8777L48.2914 55.7794C48.2914 57.6206 46.7999 59.1223 44.9485 59.1223H37.6045L39.2708 16.2206C39.2708 14.3794 40.7622 12.8777 42.6136 12.8777H49.9576Z" fill="#212121"/>
</svg>
