<svg width="194" height="36" viewBox="0 0 194 36" fill="none" xmlns="http://www.w3.org/2000/svg">
<path d="M19.6085 21.1896C18.6325 22.9739 17.2129 24.3568 15.3496 25.3829C13.4864 26.3643 11.3126 26.8996 8.82826 26.8996H0V5.04086C0 4.05944 0.798536 3.25647 1.77453 3.25647H8.87263C11.4013 3.25647 13.5751 3.74718 15.394 4.72859C17.2129 5.71 18.6325 7.0929 19.6085 8.87729C20.5845 10.6617 21.0725 12.7137 21.0725 15.0334C21.1169 17.3531 20.6289 19.4052 19.6085 21.1896ZM13.5308 19.9851C14.7729 18.8252 15.394 17.1301 15.394 15.0334C15.394 12.9368 14.7729 11.2416 13.5308 10.0817C12.2886 8.9219 10.6028 8.29736 8.38463 8.29736H7.45301C6.47702 8.29736 5.67848 9.10034 5.67848 10.0817V21.7695H8.38463C10.5584 21.7695 12.2886 21.1896 13.5308 19.9851Z" fill="white"/>
<path d="M24.7103 0.847584C25.3314 0.267658 26.1743 0 27.1946 0C28.215 0 29.0135 0.267658 29.6346 0.847584C30.2557 1.42751 30.5662 2.14126 30.5662 2.98885C30.5662 3.83643 30.2557 4.55019 29.6346 5.13011C29.0135 5.71004 28.215 5.97769 27.1946 5.97769C26.1743 5.97769 25.3757 5.71004 24.7546 5.13011C24.1336 4.55019 23.823 3.83643 23.823 2.98885C23.7787 2.14126 24.0892 1.42751 24.7103 0.847584ZM29.9895 8.25279V25.0706C29.9895 26.052 29.191 26.855 28.215 26.855H24.311V10.0372C24.311 9.05576 25.1095 8.25279 26.0855 8.25279H29.9895Z" fill="white"/>
<path d="M44.585 8.96652C45.6053 9.59106 46.3595 10.4832 46.8475 11.5985V9.99254C46.8475 9.01113 47.646 8.20816 48.622 8.20816H52.4816V26.7658C52.4816 28.5056 52.1711 30.0669 51.5056 31.4498C50.8402 32.8327 49.8198 33.9479 48.4446 34.7509C47.0693 35.5539 45.3835 36 43.3428 36C40.5479 36 38.3298 35.3308 36.644 33.9925C34.9582 32.6542 33.9822 30.8699 33.6273 28.5948H39.217C39.3945 29.3531 39.7938 29.9331 40.4149 30.3792C41.0359 30.7806 41.8788 31.0037 42.8992 31.0037C44.0526 31.0037 45.0286 30.6468 45.7384 29.9777C46.4482 29.3085 46.8031 28.1933 46.8031 26.7212V23.4647C46.3152 24.5799 45.561 25.4721 44.5406 26.0966C43.5203 26.7212 42.3225 27.078 40.9028 27.078C39.3945 27.078 38.0192 26.6766 36.8214 25.9182C35.6236 25.1598 34.6476 24.0446 33.9822 22.6171C33.2724 21.1896 32.9175 19.4944 32.9175 17.5316C32.9175 15.5687 33.2724 13.8736 33.9822 12.4461C34.692 11.0186 35.6236 9.90332 36.8214 9.14496C38.0192 8.38659 39.3945 7.98511 40.9028 7.98511C42.3668 8.02972 43.5646 8.34199 44.585 8.96652ZM39.8381 14.2305C39.084 15.0334 38.7291 16.1487 38.7291 17.5762C38.7291 19.0037 39.084 20.1189 39.8381 20.9219C40.5923 21.7249 41.5683 22.1264 42.7661 22.1264C43.9639 22.1264 44.9399 21.7249 45.6941 20.8773C46.4482 20.0743 46.8475 18.9591 46.8475 17.5762C46.8475 16.1933 46.4482 15.078 45.6941 14.2751C44.9399 13.4721 43.9639 13.0706 42.7661 13.0706C41.5683 13.026 40.5923 13.4275 39.8381 14.2305Z" fill="white"/>
<path d="M56.8291 0.847584C57.4502 0.267658 58.2487 0 59.2691 0C60.2894 0 61.0879 0.267658 61.709 0.847584C62.3301 1.42751 62.6407 2.14126 62.6407 2.98885C62.6407 3.83643 62.3301 4.55019 61.709 5.13011C61.0879 5.71004 60.2894 5.97769 59.2691 5.97769C58.2487 5.97769 57.4502 5.71004 56.8291 5.13011C56.208 4.55019 55.8975 3.83643 55.8975 2.98885C55.8975 2.14126 56.208 1.42751 56.8291 0.847584ZM62.1083 8.25279V25.0706C62.1083 26.052 61.3098 26.855 60.3338 26.855H56.4298V10.0372C56.4298 9.05576 57.2284 8.25279 58.2043 8.25279H62.1083Z" fill="white"/>
<path d="M84.1569 5.39776C86.1089 6.9591 87.3954 9.10036 87.9721 11.8216H83.0478C82.4267 11.8216 81.85 11.5093 81.5395 10.974C81.1402 10.2602 80.5635 9.68029 79.898 9.23419C78.9664 8.60966 77.9017 8.29739 76.6152 8.29739C74.9737 8.29739 73.5985 8.92192 72.5781 10.1264C71.5578 11.3308 71.0698 12.9814 71.0698 15.0334C71.0698 17.0855 71.5578 18.6914 72.5781 19.9405C73.5985 21.145 74.9294 21.7695 76.6152 21.7695C77.8573 21.7695 78.9664 21.4572 79.898 20.8327C80.5635 20.3866 81.0958 19.8067 81.5395 19.1375C81.85 18.6022 82.4267 18.3346 83.0478 18.3346H87.9721C87.3954 21.0111 86.1089 23.1524 84.1569 24.7137C82.2049 26.3197 79.7206 27.0781 76.7483 27.0781C74.4857 27.0781 72.445 26.5874 70.7592 25.5613C69.0291 24.5353 67.6982 23.1524 66.7665 21.3234C65.8349 19.4944 65.3469 17.3978 65.3469 15.0781C65.3469 12.7584 65.8349 10.6617 66.7665 8.8327C67.6982 7.00371 69.0291 5.5762 70.7592 4.59479C72.4894 3.56876 74.4857 3.07806 76.7483 3.07806C79.7206 3.03345 82.2049 3.83642 84.1569 5.39776Z" fill="white"/>
<path d="M104.741 9.14496C106.205 9.90332 107.314 11.0186 108.157 12.4461C109 13.8736 109.399 15.5688 109.399 17.5316C109.399 19.4944 109 21.145 108.157 22.6171C107.314 24.0446 106.205 25.1598 104.741 25.9182C103.277 26.6766 101.636 27.078 99.8171 27.078C97.9982 27.078 96.3124 26.6766 94.8927 25.9182C93.4288 25.1598 92.2753 24.0446 91.4768 22.6171C90.6339 21.1896 90.2346 19.4944 90.2346 17.5316C90.2346 15.5688 90.6339 13.9182 91.4768 12.4461C92.3197 11.0186 93.4731 9.90332 94.8927 9.14496C96.3567 8.38659 97.9982 7.98511 99.8171 7.98511C101.636 8.02972 103.277 8.38659 104.741 9.14496ZM97.0665 14.1412C96.3124 14.9442 95.9575 16.0595 95.9575 17.5762C95.9575 19.0483 96.3124 20.2082 97.0665 20.9665C97.8207 21.7249 98.708 22.1264 99.8171 22.1264C100.882 22.1264 101.813 21.7249 102.523 20.9665C103.233 20.2082 103.632 19.0483 103.632 17.5762C103.632 16.1041 103.277 14.9442 102.523 14.1412C101.813 13.3383 100.882 12.9368 99.8171 12.9368C98.708 12.9368 97.7764 13.3383 97.0665 14.1412Z" fill="white"/>
<path d="M120.224 2.18591L119.337 25.1153C119.337 26.0967 118.538 26.8997 117.562 26.8997H113.658L114.546 3.9703C114.546 2.98889 115.344 2.18591 116.32 2.18591H120.224Z" fill="#FFB92C"/>
<path d="M128.476 2.18591L127.588 25.1153C127.588 26.0967 126.79 26.8997 125.814 26.8997H121.91L122.797 3.9703C122.797 2.98889 123.596 2.18591 124.572 2.18591H128.476Z" fill="#FFB92C"/>
<path d="M144.446 8.96657C145.467 9.59111 146.221 10.4833 146.709 11.5985V9.9926C146.709 9.01118 147.507 8.20821 148.483 8.20821H152.343V25.0261C152.343 26.0075 151.544 26.8104 150.568 26.8104H146.709V23.4201C146.221 24.5353 145.467 25.4275 144.446 26.0521C143.426 26.6766 142.228 27.0335 140.809 27.0335C139.3 27.0335 137.925 26.632 136.727 25.8736C135.529 25.1153 134.553 24 133.888 22.5725C133.178 21.145 132.823 19.4498 132.823 17.487C132.823 15.5242 133.178 13.829 133.888 12.4015C134.598 10.974 135.529 9.85877 136.727 9.1004C137.925 8.34204 139.3 7.94055 140.809 7.94055C142.184 8.02977 143.426 8.34204 144.446 8.96657ZM139.655 14.2305C138.901 15.0335 138.546 16.1487 138.546 17.5762C138.546 19.0038 138.901 20.119 139.655 20.922C140.409 21.7249 141.385 22.1264 142.583 22.1264C143.781 22.1264 144.757 21.7249 145.511 20.8774C146.265 20.0744 146.665 18.9591 146.665 17.5762C146.665 16.1933 146.265 15.0781 145.511 14.2751C144.757 13.4722 143.781 13.0707 142.583 13.0707C141.385 13.0261 140.409 13.4275 139.655 14.2305Z" fill="white"/>
<path d="M171.907 9.14502C173.105 9.90339 174.081 11.0186 174.746 12.4461C175.456 13.8736 175.811 15.5688 175.811 17.5316C175.811 19.4499 175.456 21.145 174.746 22.6171C174.037 24.0447 173.105 25.1599 171.907 25.9183C170.709 26.6766 169.334 27.0781 167.826 27.0781C166.406 27.0781 165.208 26.7658 164.188 26.0967C163.168 25.4722 162.413 24.58 161.97 23.4647V25.0707C161.97 26.0521 161.171 26.8551 160.195 26.8551H156.291V3.9703C156.291 2.98889 157.09 2.18591 158.066 2.18591H161.97V11.5986C162.413 10.4833 163.168 9.59112 164.188 8.96658C165.208 8.34205 166.406 7.98517 167.826 7.98517C169.334 8.02978 170.665 8.38666 171.907 9.14502ZM163.034 14.2305C162.28 15.0335 161.881 16.1487 161.881 17.5316C161.881 18.9145 162.28 20.0298 163.034 20.8328C163.789 21.6357 164.765 22.0818 165.962 22.0818C167.16 22.0818 168.136 21.6803 168.89 20.8774C169.645 20.0744 169.999 18.9591 169.999 17.5316C169.999 16.1041 169.645 14.9889 168.89 14.1859C168.136 13.3829 167.16 12.9815 165.962 12.9815C164.765 13.0261 163.789 13.4275 163.034 14.2305Z" fill="white"/>
<path d="M191.116 9.76956C192.536 10.9294 193.379 12.4908 193.734 14.4536H189.653C189.031 14.4536 188.41 14.1413 188.1 13.5614C187.922 13.2045 187.656 12.8922 187.346 12.6692C186.813 12.2231 186.103 12 185.305 12C184.684 12 184.196 12.1339 183.841 12.4015C183.53 12.6692 183.353 13.0707 183.353 13.606C183.353 14.1859 183.663 14.632 184.285 14.8997C184.906 15.1673 185.837 15.4796 187.168 15.7473C188.588 16.0595 189.741 16.4164 190.673 16.7733C191.56 17.1302 192.359 17.6655 193.024 18.4685C193.69 19.2268 194 20.2974 194 21.5911C194 22.6618 193.734 23.5986 193.157 24.4461C192.58 25.2491 191.738 25.9183 190.673 26.3644C189.608 26.8105 188.322 27.0781 186.813 27.0781C184.329 27.0781 182.333 26.5428 180.824 25.4276C179.316 24.3123 178.384 22.7064 178.074 20.6543H182.244C182.909 20.6543 183.53 21.0558 183.841 21.6803C184.018 21.9926 184.24 22.3049 184.551 22.5279C185.127 22.9294 185.882 23.1525 186.813 23.1525C187.434 23.1525 187.922 23.0186 188.277 22.7064C188.588 22.3941 188.765 21.9926 188.765 21.5019C188.765 20.8774 188.455 20.3867 187.834 20.119C187.213 19.8513 186.237 19.5391 184.861 19.2268C183.486 18.9592 182.377 18.6469 181.49 18.29C180.602 17.9777 179.848 17.3978 179.183 16.6841C178.562 15.9257 178.207 14.8997 178.207 13.6506C178.207 12 178.828 10.6171 180.114 9.59112C181.357 8.5651 183.175 8.02979 185.438 8.02979C187.834 8.02979 189.697 8.60971 191.116 9.76956Z" fill="white"/>
</svg>
