<svg width="160" height="160" viewBox="0 0 160 160" fill="none" xmlns="http://www.w3.org/2000/svg">
<path d="M80.0002 13.3333C43.3335 13.3333 13.3335 43.3333 13.3335 80C13.3335 116.667 43.3335 146.667 80.0002 146.667C116.667 146.667 146.667 116.667 146.667 80C146.667 43.3333 116.667 13.3333 80.0002 13.3333ZM114.667 66.6667L84.0002 102C81.3335 104.667 78.0002 106.667 74.6668 106.667H74.0002C70.6668 106.667 67.3335 105.333 64.6668 102.667L49.3335 86.6667C46.0002 83.3333 46.0002 78 49.3335 75.3333C52.6668 72 58.0002 72 60.6668 75.3333L74.0002 88.6667L102 56C104.667 52.6667 110 52 113.334 55.3333C117.334 58 117.334 63.3333 114.667 66.6667Z" fill="#27AE60"/>
</svg>
